General

Complete name                    : Man On The Moon[1999]BRrip[Ac3]-=[CaLvIn]=-
Format                           : AVI
Format/Info                      : Audio Video Interleave
File size                        : 709 MiB
Duration                         : 1h 58mn
Overall bit rate                 : 837 Kbps


Video

ID                               : 0
Format                           : MPEG-4 Visual
Format profile                   : Advanced Simple@L5
Format settings, BVOP            : 2
Format settings, QPel            : No
Format settings, GMC             : No warppoints
Format settings, Matrix          : Default (H.263)
Codec ID                         : XVID
Codec ID/Hint                    : XviD
Duration                         : 1h 58mn
Bit rate                         : 699 Kbps
Width                            : 720 pixels
Height                           : 304 pixels
Display aspect ratio             : 16:9
Frame rate                       : 24.000 fps
Color space                      : YUV
Chroma subsampling               : 4:2:0
Bit depth                        : 8 bits
Scan type                        : Progressive
Compression mode                 : Lossy
Bits/(Pixel*Frame)               : 0.133
Stream size                      : 593 MiB (84%)
Writing library                  : XviD 1.2.1 (UTC 2008-12-04)

Audio

ID                               : 1
Format                           : AC-3
Format/Info                      : Audio Coding 3
Mode extension                   : CM (complete main)
Codec ID                         : 2000
Duration                         : 1h 58mn
Bit rate mode                    : Constant
Bit rate                         : 128 Kbps
Channel(s)                       : 2 channels
Channel positions                : Front: L R
Sampling rate                    : 48.0 KHz
Bit depth                        : 16 bits
Compression mode                 : Lossy
Stream size                      : 108 MiB (15%)
Alignment                        : Split accross interleaves
Interleave, duration             : 42 ms (1.00 video frame)
Interleave, preload duration     : 500 ms


Screens
 
http://img191.imageshack.us/img191/5565/83650033.png 
http://img37.imageshack.us/img37/8647/81137237.png 
http://img99.imageshack.us/img99/953/47890593.png 
http://img545.imageshack.us/img545/6853/90260599.png 
http://img171.imageshack.us/img171/7712/57532646.png 
http://img96.imageshack.us/img96/5371/60165213.png 
http://img502.imageshack.us/img502/271/79272466.png 
http://img546.imageshack.us/img546/2616/79156557.png 
http://img135.imageshack.us/img135/5241/65892717.png 
http://img266.imageshack.us/img266/6181/59472005.png
